<svg width="34" height="30" viewBox="0 0 34 30" fill="none" xmlns="http://www.w3.org/2000/svg">
  <path d="M20.8057 19.4C20.1057 19.4 19.5057 20 19.5057 20.7V23.7H3.50573V6.39995H19.5057V9.39995C19.4057 10.1 20.0057 10.7 20.8057 10.7C21.6057 10.7 22.1057 10.1 22.1057 9.39995V4.99995C22.1057 4.29995 21.5057 3.69995 20.8057 3.69995H2.10573C1.40573 3.69995 0.805725 4.29995 0.805725 4.99995V25C0.805725 25.7 1.40573 26.3 2.10573 26.3H20.8057C21.5057 26.3 22.1057 25.7 22.1057 25V20.7C22.1057 20 21.5057 19.4 20.8057 19.4Z" fill="#00AEA4"/>
  <path d="M32.8057 14.1L27.2057 8.5C26.7057 8 25.8057 8 25.3057 8.5C24.8057 9 24.8057 9.9 25.3057 10.4L28.6057 13.7H16.0057C15.3057 13.7 14.7057 14.3 14.7057 15C14.7057 15.7 15.3057 16.3 16.0057 16.3H28.6057L25.4057 19.7C25.1057 20 25.0057 20.3 25.0057 20.7C25.0057 21 25.1057 21.4 25.4057 21.7C25.9057 22.2 26.8057 22.2 27.3057 21.7L32.9057 16.1C33.3057 15.5 33.3057 14.6 32.8057 14.1Z" fill="#00AEA4"/>
</svg>
