<svg width="30" height="30" viewBox="0 0 30 30" fill="none" xmlns="http://www.w3.org/2000/svg">
  <path fill-rule="evenodd" clip-rule="evenodd" d="M16.5643 5.57367C16.9412 5.42044 17.3733 5.51081 17.6572 5.80223L25.7163 14.0749C26.0874 14.4558 26.0954 15.0604 25.7347 15.4511L17.6756 24.1785C17.3963 24.4809 16.9601 24.5813 16.5767 24.4313C16.1933 24.2814 15.9409 23.9117 15.9409 23.5V19.0313C14.6071 18.908 13.2034 18.9987 11.7254 19.3124C10.1823 19.6398 8.19648 21.0942 5.77358 24.0518C5.49401 24.3931 5.02383 24.5108 4.61641 24.3416C4.20899 24.1723 3.96061 23.7561 4.00512 23.3172C4.3671 19.7472 5.73923 16.7239 8.13348 14.2976C10.3079 12.0941 12.9242 10.865 15.9409 10.6263V6.50003C15.9409 6.09319 16.1874 5.7269 16.5643 5.57367ZM17.9409 8.9596V11.5835C17.9409 12.1327 17.498 12.5792 16.9488 12.5835C14.0384 12.6065 11.5933 13.6389 9.55706 15.7024C8.32209 16.9539 7.39882 18.3901 6.78986 20.0221C8.34192 18.589 9.84822 17.6661 11.3103 17.3559C13.3164 16.9303 15.2499 16.8613 17.1025 17.1647C17.586 17.2438 17.9409 17.6616 17.9409 18.1515V20.9431L23.6219 14.7911L17.9409 8.9596Z" fill="#F26C48"/>
</svg>
