<svg xmlns="http://www.w3.org/2000/svg" width="50" height="50" viewBox="0 0 50 50" fill="none">
  <rect width="50" height="50" fill="#F2F2F2"/>
  <path fill-rule="evenodd" clip-rule="evenodd" d="M16.6663 10.4167C17.8169 10.4167 18.7497 11.3494 18.7497 12.5V37.5C18.7497 38.6506 17.8169 39.5833 16.6663 39.5833C15.5157 39.5833 14.583 38.6506 14.583 37.5V12.5C14.583 11.3494 15.5157 10.4167 16.6663 10.4167ZM33.333 10.4167C34.4836 10.4167 35.4163 11.3494 35.4163 12.5V37.5C35.4163 38.6506 34.4836 39.5833 33.333 39.5833C32.1824 39.5833 31.2497 38.6506 31.2497 37.5V12.5C31.2497 11.3494 32.1824 10.4167 33.333 10.4167Z" fill="#00AEA4"/>
</svg>
