<svg width="30" height="30" viewBox="0 0 30 30" fill="none" xmlns="http://www.w3.org/2000/svg">
  <path fill-rule="evenodd" clip-rule="evenodd" d="M15.0055 3.12488C15.6959 3.12488 16.2555 3.68452 16.2555 4.37488V6.93832C17.672 7.0815 19.0128 7.45982 20.2399 7.99962L21.2496 6.59072C21.6518 6.02959 22.4327 5.90073 22.9938 6.30289C23.5549 6.70504 23.6838 7.48594 23.2816 8.04706L22.445 9.21446C22.9138 9.52953 23.356 9.86673 23.7681 10.2198C25.9403 12.0804 27.5 14.5837 27.5 16.8749C27.5 19.1661 25.9403 21.6693 23.7681 23.53C21.547 25.4326 18.4549 26.8749 15 26.8749C11.5448 26.8749 8.45278 25.4316 6.23174 23.5285C4.05988 21.6676 2.5 19.1644 2.5 16.8749C2.5 14.5853 4.05988 12.0821 6.23174 10.2212C6.79248 9.74079 7.40875 9.28964 8.07235 8.88361L7.27379 7.76936C6.87165 7.20822 7.00053 6.42733 7.56166 6.02518C8.12279 5.62304 8.90368 5.75192 9.30583 6.31305L10.3425 7.75956C11.4106 7.34654 12.5559 7.05751 13.7555 6.93725V4.37488C13.7555 3.68452 14.3151 3.12488 15.0055 3.12488ZM15 9.37489C12.242 9.37489 9.70903 10.534 7.85837 12.1197C5.95852 13.7475 5 15.6193 5 16.8749C5 18.1305 5.95852 20.0023 7.85837 21.6301C9.70903 23.2158 12.242 24.3749 15 24.3749C17.7583 24.3749 20.2912 23.2165 22.1418 21.6313C24.0413 20.0042 25 18.1324 25 16.8749C25 15.6174 24.0413 13.7456 22.1418 12.1184C20.2912 10.5333 17.7583 9.37489 15 9.37489ZM10 16.8749C10 14.1135 12.2386 11.8749 15 11.8749C17.7614 11.8749 20 14.1135 20 16.8749C20 19.6363 17.7614 21.8749 15 21.8749C12.2386 21.8749 10 19.6363 10 16.8749ZM15 14.3749C13.6193 14.3749 12.5 15.4942 12.5 16.8749C12.5 18.2556 13.6193 19.3749 15 19.3749C16.3807 19.3749 17.5 18.2556 17.5 16.8749C17.5 15.4942 16.3807 14.3749 15 14.3749Z" fill="#4F4F4F"/>
</svg>
