<svg xmlns="http://www.w3.org/2000/svg" width="50" height="50" viewBox="0 0 50 50" fill="none">
  <rect width="50" height="50" fill="#F2F2F2"/>
  <path fill-rule="evenodd" clip-rule="evenodd" d="M16.6663 4.16666C16.6663 3.01607 17.5991 2.08333 18.7497 2.08333H31.2497C32.4003 2.08333 33.333 3.01607 33.333 4.16666C33.333 5.31725 32.4003 6.24999 31.2497 6.24999H27.083V8.33333C27.083 8.36957 27.0821 8.4056 27.0803 8.44138C37.033 9.48115 44.7913 17.897 44.7913 28.125C44.7913 39.0556 35.9303 47.9167 24.9997 47.9167C14.069 47.9167 5.20801 39.0556 5.20801 28.125C5.20801 17.897 12.9664 9.48115 22.9191 8.44138C22.9173 8.40559 22.9163 8.36957 22.9163 8.33333V6.24999H18.7497C17.5991 6.24999 16.6663 5.31725 16.6663 4.16666ZM24.9997 12.5C16.3702 12.5 9.37467 19.4955 9.37467 28.125C9.37467 36.7544 16.3702 43.75 24.9997 43.75C33.6291 43.75 40.6247 36.7544 40.6247 28.125C40.6247 19.4955 33.6291 12.5 24.9997 12.5ZM24.9997 17.7083C26.1503 17.7083 27.083 18.6411 27.083 19.7917V27.0833H33.333C34.4836 27.0833 35.4163 28.0161 35.4163 29.1667C35.4163 30.3173 34.4836 31.25 33.333 31.25H24.9997C23.8491 31.25 22.9163 30.3173 22.9163 29.1667C22.9163 28.9868 22.9391 28.8123 22.982 28.6458C22.9391 28.4794 22.9163 28.3048 22.9163 28.125V19.7917C22.9163 18.6411 23.8491 17.7083 24.9997 17.7083Z" fill="#00AEA4"/>
</svg>
