<svg xmlns="http://www.w3.org/2000/svg" width="50" height="50" viewBox="0 0 50 50" fill="none">
  <rect width="50" height="50" fill="#F2F2F2"/>
  <path fill-rule="evenodd" clip-rule="evenodd" d="M27.083 6.25002C27.083 5.00002 26.2497 4.16669 24.9997 4.16669C20.4163 4.16669 16.8747 7.08335 14.3747 9.58335C13.1955 10.7626 11.9803 12.0903 11.1892 13.5417H6.24967C3.95801 13.5417 2.08301 15.4167 2.08301 17.7084V32.0834C2.08301 34.375 3.95801 36.25 6.24967 36.25H11.1455L11.458 36.875C12.2913 37.9167 13.1247 39.1667 14.3747 40.4167C16.6663 42.9167 20.4163 45.8334 24.9997 45.8334C26.2497 45.8334 27.083 45 27.083 43.75V6.25002ZM14.9997 34.5834C15.6247 35.4167 16.458 36.4584 17.4997 37.5C19.0461 39.2011 20.9368 40.6725 22.9163 41.318V8.67845C20.9368 9.31367 19.0461 10.7453 17.4997 12.2917C16.458 13.5417 15.6247 14.5834 14.9997 15.4167C14.1012 16.3151 13.8635 17.7084 12.2913 17.7084H6.24967V32.0834H12.2913C14.1481 32.0834 14.0212 33.6049 14.9997 34.5834Z" fill="#00AEA4"/>
  <path d="M34.7207 14.071C33.8624 13.3047 32.5455 13.3791 31.7791 14.2374C31.0127 15.0956 31.0872 16.4126 31.9454 17.1789C32.4848 17.6606 32.9745 18.2007 33.4049 18.79C34.6662 20.5169 35.4164 22.6635 35.4164 25C35.4164 27.3162 34.679 29.4459 33.4376 31.165C32.9993 31.7718 32.4985 32.3271 31.9454 32.8211C31.0872 33.5874 31.0127 34.9044 31.7791 35.7626C32.5455 36.6209 33.8624 36.6953 34.7207 35.9289C35.499 35.2339 36.2018 34.4542 36.8156 33.6044C38.5568 31.1931 39.583 28.2139 39.583 25C39.583 21.758 38.5388 18.7548 36.7697 16.3325C36.1668 15.507 35.4796 14.7487 34.7207 14.071Z" fill="#00AEA4"/>
  <path d="M37.0405 5.49813C36.062 4.89281 34.7781 5.19532 34.1728 6.17382C33.5674 7.15231 33.87 8.43625 34.8485 9.04157C40.195 12.3491 43.7496 18.2603 43.7496 25C43.7496 31.8459 40.0819 37.8374 34.5942 41.1129C33.6062 41.7026 33.2834 42.9816 33.8731 43.9695C34.4628 44.9575 35.7418 45.2804 36.7298 44.6907C43.4248 40.6945 47.9163 33.3728 47.9163 25C47.9163 16.7574 43.5631 9.53319 37.0405 5.49813Z" fill="#00AEA4"/>
</svg>
